<?xml version="1.0"?><svg xmlns="http://www.w3.org/2000/svg" xmlns:xlink="http://www.w3.org/1999/xlink" viewBox="89.53 71.82 136.01 83.28" preserveAspectRatio="xMidYMid" width="100%" height="100%"><clipPath id="61"><rect x="0.5" y="0.5" width="522.32" height="768.92" /></clipPath><g id="drawing"><rect x="89.53" y="71.82" width="100%" height="100%" fill="rgb(255, 255, 255)" /><g id="page" clip-path="url(#61)"><g id="Solid"><path d="M119.06 121.49 L119.06 121.49 L118.56 121.2 L118.56 120.62 L144.04 105.91 L144.54 106.2 L144.54 106.78 Z" stroke="rgb(0, 0, 0)" stroke-width="0" fill-rule="evenodd" stroke-linejoin="miter" fill="rgb(0, 0, 0)" shape-rendering="geometricPrecision" /><line x1="122.16" y1="123.28" x2="144.54" y2="110.36" stroke="rgb(0, 0, 0)" stroke-width="1" shape-rendering="auto" /></g><g><text xml:space="preserve" text-anchor="start" text-rendering="geometricPrecision"><tspan x="141.49" y="80.1" font-family="Arial" font-size="10" fill="rgb(0, 0, 0)">F</tspan></text></g><g id="Solid"><path d="M145.04 105.91 L145.04 105.91 L144.54 106.2 L144.04 105.91 L144.04 82.1 L144.54 82.1 L145.04 82.1 Z" stroke="rgb(0, 0, 0)" stroke-width="0" fill-rule="evenodd" stroke-linejoin="miter" fill="rgb(0, 0, 0)" shape-rendering="geometricPrecision" /></g><g id="Solid"><path d="M144.54 106.78 L144.54 106.78 L144.54 106.2 L145.04 105.91 L170.52 120.62 L170.52 121.2 L170.02 121.49 Z" stroke="rgb(0, 0, 0)" stroke-width="0" fill-rule="evenodd" stroke-linejoin="miter" fill="rgb(0, 0, 0)" shape-rendering="geometricPrecision" /></g><g><text xml:space="preserve" text-anchor="start" text-rendering="geometricPrecision"><tspan x="167.47" y="155.1" font-family="Arial" font-size="10" fill="rgb(0, 0, 0)">F</tspan></text></g><g id="Solid"><path d="M170.02 121.49 L170.02 121.49 L170.52 121.2 L171.02 121.49 L171.02 146 L170.52 146 L170.02 146 Z" stroke="rgb(0, 0, 0)" stroke-width="0" fill-rule="evenodd" stroke-linejoin="miter" fill="rgb(0, 0, 0)" shape-rendering="geometricPrecision" /></g><g id="Solid"><path d="M171.02 121.49 L171.02 121.49 L170.52 121.2 L170.52 120.62 L196 105.91 L196.5 106.2 L196.5 106.78 Z" stroke="rgb(0, 0, 0)" stroke-width="0" fill-rule="evenodd" stroke-linejoin="miter" fill="rgb(0, 0, 0)" shape-rendering="geometricPrecision" /><line x1="170.52" y1="117.04" x2="192.9" y2="104.12" stroke="rgb(0, 0, 0)" stroke-width="1" shape-rendering="auto" /></g><g><text xml:space="preserve" text-anchor="start" text-rendering="geometricPrecision"><tspan x="115.51" y="155.1" font-family="Arial" font-size="10" fill="rgb(0, 0, 0)">F</tspan></text></g><g id="Solid"><path d="M118.06 121.49 L118.06 121.49 L118.56 121.2 L119.06 121.49 L119.06 146 L118.56 146 L118.06 146 Z" stroke="rgb(0, 0, 0)" stroke-width="0" fill-rule="evenodd" stroke-linejoin="miter" fill="rgb(0, 0, 0)" shape-rendering="geometricPrecision" /></g><g><text xml:space="preserve" text-anchor="start" text-rendering="geometricPrecision"><tspan x="89.53" y="110.1" font-family="Arial" font-size="10" fill="rgb(0, 0, 0)">F</tspan></text></g><g id="Solid"><path d="M118.56 120.62 L118.56 120.62 L118.56 121.2 L118.06 121.49 L96.68 109.15 L96.93 108.71 L97.18 108.28 Z" stroke="rgb(0, 0, 0)" stroke-width="0" fill-rule="evenodd" stroke-linejoin="miter" fill="rgb(0, 0, 0)" shape-rendering="geometricPrecision" /></g><g><text xml:space="preserve" text-anchor="start" text-rendering="geometricPrecision"><tspan x="193.45" y="80.1" font-family="Arial" font-size="10" fill="rgb(0, 0, 0)">F</tspan></text></g><g id="Solid"><path d="M197 105.91 L197 105.91 L196.5 106.2 L196 105.91 L196 82.1 L196.5 82.1 L197 82.1 Z" stroke="rgb(0, 0, 0)" stroke-width="0" fill-rule="evenodd" stroke-linejoin="miter" fill="rgb(0, 0, 0)" shape-rendering="geometricPrecision" /></g><g><text xml:space="preserve" text-anchor="start" text-rendering="geometricPrecision"><tspan x="219.43" y="125.1" font-family="Arial" font-size="10" fill="rgb(0, 0, 0)">F</tspan></text></g><g id="Solid"><path d="M196.5 106.78 L196.5 106.78 L196.5 106.2 L197 105.91 L218.82 118.51 L218.57 118.94 L218.32 119.37 Z" stroke="rgb(0, 0, 0)" stroke-width="0" fill-rule="evenodd" stroke-linejoin="miter" fill="rgb(0, 0, 0)" shape-rendering="geometricPrecision" /></g></g></g></svg>