<?xml version="1.0"?><svg xmlns="http://www.w3.org/2000/svg" xmlns:xlink="http://www.w3.org/1999/xlink" viewBox="55.93 85.62 136.01 83.28" preserveAspectRatio="xMidYMid" width="100%" height="100%"><clipPath id="27"><rect x="0.5" y="0.5" width="522.32" height="768.92" /></clipPath><g id="drawing"><rect x="55.93" y="85.62" width="100%" height="100%" fill="rgb(255, 255, 255)" /><g id="page" clip-path="url(#27)"><g id="Solid"><path d="M85.46 135.29 L85.46 135.29 L84.96 135 L85.46 134.13 L110.44 119.71 L110.94 120 L110.94 120.58 Z" stroke="rgb(0, 0, 0)" stroke-width="0" fill-rule="evenodd" stroke-linejoin="miter" fill="rgb(0, 0, 0)" shape-rendering="geometricPrecision" /></g><g id="Solid"><path d="M110.94 120.58 L110.94 120.58 L110.94 120 L111.44 119.71 L136.92 134.42 L136.92 135 L136.42 135.29 Z" stroke="rgb(0, 0, 0)" stroke-width="0" fill-rule="evenodd" stroke-linejoin="miter" fill="rgb(0, 0, 0)" shape-rendering="geometricPrecision" /><line x1="114.54" y1="117.92" x2="136.92" y2="130.84" stroke="rgb(0, 0, 0)" stroke-width="1" shape-rendering="auto" /></g><g id="Solid"><path d="M137.42 135.29 L137.42 135.29 L136.92 135 L136.92 134.42 L162.4 119.71 L162.9 120 L162.9 120.58 Z" stroke="rgb(0, 0, 0)" stroke-width="0" fill-rule="evenodd" stroke-linejoin="miter" fill="rgb(0, 0, 0)" shape-rendering="geometricPrecision" /></g><g><text xml:space="preserve" text-anchor="start" text-rendering="geometricPrecision"><tspan x="55.93" y="123.9" font-family="Arial" font-size="10" fill="rgb(0, 0, 0)">F</tspan></text></g><g id="Solid"><path d="M84.46 134.13 L84.46 134.13 L84.96 135 L84.46 135.29 L63.08 122.95 L63.33 122.51 L63.58 122.08 Z" stroke="rgb(0, 0, 0)" stroke-width="0" fill-rule="evenodd" stroke-linejoin="miter" fill="rgb(0, 0, 0)" shape-rendering="geometricPrecision" /></g><g><text xml:space="preserve" text-anchor="start" text-rendering="geometricPrecision"><tspan x="81.91" y="168.9" font-family="Arial" font-size="10" fill="rgb(0, 0, 0)">F</tspan></text></g><g id="Solid"><path d="M84.46 135.29 L84.46 135.29 L84.96 135 L85.46 135.29 L85.46 159.8 L84.96 159.8 L84.46 159.8 Z" stroke="rgb(0, 0, 0)" stroke-width="0" fill-rule="evenodd" stroke-linejoin="miter" fill="rgb(0, 0, 0)" shape-rendering="geometricPrecision" /></g><g><text xml:space="preserve" text-anchor="start" text-rendering="geometricPrecision"><tspan x="81.91" y="108.9" font-family="Arial" font-size="10" fill="rgb(0, 0, 0)">F</tspan></text></g><g id="Solid"><path d="M85.46 134.13 L85.46 134.13 L84.96 135 L84.46 134.13 L84.46 110.9 L84.96 110.9 L85.46 110.9 Z" stroke="rgb(0, 0, 0)" stroke-width="0" fill-rule="evenodd" stroke-linejoin="miter" fill="rgb(0, 0, 0)" shape-rendering="geometricPrecision" /></g><g><text xml:space="preserve" text-anchor="start" text-rendering="geometricPrecision"><tspan x="185.83" y="138.9" font-family="Arial" font-size="10" fill="rgb(0, 0, 0)">F</tspan></text></g><g id="Solid"><path d="M162.9 120.58 L162.9 120.58 L162.9 120 L163.9 120 L185.22 132.31 L184.97 132.74 L184.72 133.17 Z" stroke="rgb(0, 0, 0)" stroke-width="0" fill-rule="evenodd" stroke-linejoin="miter" fill="rgb(0, 0, 0)" shape-rendering="geometricPrecision" /></g><g><text xml:space="preserve" text-anchor="start" text-rendering="geometricPrecision"><tspan x="159.85" y="93.9" font-family="Arial" font-size="10" fill="rgb(0, 0, 0)">F</tspan></text></g><g id="Solid"><path d="M163.4 119.13 L163.4 119.13 L162.9 120 L162.4 119.71 L162.4 95.9 L162.9 95.9 L163.4 95.9 Z" stroke="rgb(0, 0, 0)" stroke-width="0" fill-rule="evenodd" stroke-linejoin="miter" fill="rgb(0, 0, 0)" shape-rendering="geometricPrecision" /></g><g><text xml:space="preserve" text-anchor="start" text-rendering="geometricPrecision"><tspan x="185.83" y="108.9" font-family="Arial" font-size="10" fill="rgb(0, 0, 0)">F</tspan></text></g><g id="Solid"><path d="M163.9 120 L163.9 120 L162.9 120 L163.4 119.13 L184.72 106.83 L184.97 107.26 L185.22 107.69 Z" stroke="rgb(0, 0, 0)" stroke-width="0" fill-rule="evenodd" stroke-linejoin="miter" fill="rgb(0, 0, 0)" shape-rendering="geometricPrecision" /></g><g><text xml:space="preserve" text-anchor="start" text-rendering="geometricPrecision"><tspan x="133.87" y="168.9" font-family="Arial" font-size="10" fill="rgb(0, 0, 0)">F</tspan></text></g><g id="Solid"><path d="M136.42 135.29 L136.42 135.29 L136.92 135 L137.42 135.29 L137.42 159.8 L136.92 159.8 L136.42 159.8 Z" stroke="rgb(0, 0, 0)" stroke-width="0" fill-rule="evenodd" stroke-linejoin="miter" fill="rgb(0, 0, 0)" shape-rendering="geometricPrecision" /></g><g><text xml:space="preserve" text-anchor="start" text-rendering="geometricPrecision"><tspan x="107.89" y="93.9" font-family="Arial" font-size="10" fill="rgb(0, 0, 0)">F</tspan></text></g><g id="Solid"><path d="M111.44 119.71 L111.44 119.71 L110.94 120 L110.44 119.71 L110.44 95.9 L110.94 95.9 L111.44 95.9 Z" stroke="rgb(0, 0, 0)" stroke-width="0" fill-rule="evenodd" stroke-linejoin="miter" fill="rgb(0, 0, 0)" shape-rendering="geometricPrecision" /></g></g></g></svg>