<?xml version="1.0"?><svg xmlns="http://www.w3.org/2000/svg" xmlns:xlink="http://www.w3.org/1999/xlink" viewBox="56.35 148.02 136.01 128.28" preserveAspectRatio="xMidYMid" width="100%" height="100%"><clipPath id="41"><rect x="0.5" y="0.5" width="522.32" height="768.92" /></clipPath><g id="drawing"><rect x="56.35" y="148.02" width="100%" height="100%" fill="rgb(255, 255, 255)" /><g id="page" clip-path="url(#41)"><g id="Solid"><path d="M84.88 197.69 L84.88 197.69 L85.38 197.4 L85.88 197.69 L85.88 227.11 L85.38 227.4 L84.88 227.11 Z" stroke="rgb(0, 0, 0)" stroke-width="0" fill-rule="evenodd" stroke-linejoin="miter" fill="rgb(0, 0, 0)" shape-rendering="geometricPrecision" /><line x1="88.98" y1="199.48" x2="88.98" y2="225.32" stroke="rgb(0, 0, 0)" stroke-width="1" shape-rendering="auto" /></g><g id="Solid"><path d="M85.38 227.98 L85.38 227.98 L85.38 227.4 L85.88 227.11 L111.36 241.82 L111.36 242.4 L110.86 242.69 Z" stroke="rgb(0, 0, 0)" stroke-width="0" fill-rule="evenodd" stroke-linejoin="miter" fill="rgb(0, 0, 0)" shape-rendering="geometricPrecision" /></g><g id="Solid"><path d="M111.86 242.69 L111.86 242.69 L111.36 242.4 L111.36 241.82 L136.84 227.11 L137.34 227.4 L137.34 227.98 Z" stroke="rgb(0, 0, 0)" stroke-width="0" fill-rule="evenodd" stroke-linejoin="miter" fill="rgb(0, 0, 0)" shape-rendering="geometricPrecision" /><line x1="111.36" y1="238.24" x2="133.74" y2="225.32" stroke="rgb(0, 0, 0)" stroke-width="1" shape-rendering="auto" /></g><g id="Solid"><path d="M137.84 227.11 L137.84 227.11 L137.34 227.4 L136.84 227.11 L136.84 197.69 L137.34 197.4 L137.84 197.69 Z" stroke="rgb(0, 0, 0)" stroke-width="0" fill-rule="evenodd" stroke-linejoin="miter" fill="rgb(0, 0, 0)" shape-rendering="geometricPrecision" /></g><g id="Solid"><path d="M137.34 196.82 L137.34 196.82 L137.34 197.4 L136.84 197.69 L111.36 182.98 L111.36 182.4 L111.86 182.11 Z" stroke="rgb(0, 0, 0)" stroke-width="0" fill-rule="evenodd" stroke-linejoin="miter" fill="rgb(0, 0, 0)" shape-rendering="geometricPrecision" /><line x1="133.74" y1="199.48" x2="111.36" y2="186.56" stroke="rgb(0, 0, 0)" stroke-width="1" shape-rendering="auto" /></g><g id="Solid"><path d="M110.86 182.11 L110.86 182.11 L111.36 182.4 L111.36 182.98 L85.88 197.69 L85.38 197.4 L85.38 196.82 Z" stroke="rgb(0, 0, 0)" stroke-width="0" fill-rule="evenodd" stroke-linejoin="miter" fill="rgb(0, 0, 0)" shape-rendering="geometricPrecision" /></g><g><text xml:space="preserve" text-anchor="start" text-rendering="geometricPrecision"><tspan x="108.31" y="156.3" font-family="Arial" font-size="10" fill="rgb(0, 0, 0)">F</tspan></text></g><g id="Solid"><path d="M111.86 182.11 L111.86 182.11 L111.36 182.4 L110.86 182.11 L110.86 158.3 L111.36 158.3 L111.86 158.3 Z" stroke="rgb(0, 0, 0)" stroke-width="0" fill-rule="evenodd" stroke-linejoin="miter" fill="rgb(0, 0, 0)" shape-rendering="geometricPrecision" /></g><g><text xml:space="preserve" text-anchor="start" text-rendering="geometricPrecision"><tspan x="56.35" y="186.3" font-family="Arial" font-size="10" fill="rgb(0, 0, 0)">F</tspan></text></g><g id="Solid"><path d="M85.38 196.82 L85.38 196.82 L85.38 197.4 L84.88 197.69 L63.48 185.33 L63.73 184.9 L63.98 184.47 Z" stroke="rgb(0, 0, 0)" stroke-width="0" fill-rule="evenodd" stroke-linejoin="miter" fill="rgb(0, 0, 0)" shape-rendering="geometricPrecision" /></g><g><text xml:space="preserve" text-anchor="start" text-rendering="geometricPrecision"><tspan x="56.35" y="246.3" font-family="Arial" font-size="10" fill="rgb(0, 0, 0)">F</tspan></text></g><g id="Solid"><path d="M84.88 227.11 L84.88 227.11 L85.38 227.4 L85.38 227.98 L63.98 240.33 L63.73 239.9 L63.48 239.47 Z" stroke="rgb(0, 0, 0)" stroke-width="0" fill-rule="evenodd" stroke-linejoin="miter" fill="rgb(0, 0, 0)" shape-rendering="geometricPrecision" /></g><g><text xml:space="preserve" text-anchor="start" text-rendering="geometricPrecision"><tspan x="108.31" y="276.3" font-family="Arial" font-size="10" fill="rgb(0, 0, 0)">F</tspan></text></g><g id="Solid"><path d="M110.86 242.69 L110.86 242.69 L111.36 242.4 L111.86 242.69 L111.86 267.2 L111.36 267.2 L110.86 267.2 Z" stroke="rgb(0, 0, 0)" stroke-width="0" fill-rule="evenodd" stroke-linejoin="miter" fill="rgb(0, 0, 0)" shape-rendering="geometricPrecision" /></g><g><text xml:space="preserve" text-anchor="start" text-rendering="geometricPrecision"><tspan x="160.27" y="246.3" font-family="Arial" font-size="10" fill="rgb(0, 0, 0)">F</tspan></text></g><g id="Solid"><path d="M137.34 227.98 L137.34 227.98 L137.34 227.4 L137.84 227.11 L159.62 239.69 L159.37 240.12 L159.12 240.55 Z" stroke="rgb(0, 0, 0)" stroke-width="0" fill-rule="evenodd" stroke-linejoin="miter" fill="rgb(0, 0, 0)" shape-rendering="geometricPrecision" /></g><g id="Solid"><path d="M137.84 197.69 L137.84 197.69 L137.34 197.4 L137.34 196.82 L162.82 182.11 L163.32 182.4 L163.32 182.98 Z" stroke="rgb(0, 0, 0)" stroke-width="0" fill-rule="evenodd" stroke-linejoin="miter" fill="rgb(0, 0, 0)" shape-rendering="geometricPrecision" /></g><g><text xml:space="preserve" text-anchor="start" text-rendering="geometricPrecision"><tspan x="186.25" y="201.3" font-family="Arial" font-size="10" fill="rgb(0, 0, 0)">F</tspan></text></g><g id="Solid"><path d="M163.32 182.98 L163.32 182.98 L163.32 182.4 L164.32 182.4 L185.62 194.7 L185.37 195.13 L185.12 195.56 Z" stroke="rgb(0, 0, 0)" stroke-width="0" fill-rule="evenodd" stroke-linejoin="miter" fill="rgb(0, 0, 0)" shape-rendering="geometricPrecision" /></g><g><text xml:space="preserve" text-anchor="start" text-rendering="geometricPrecision"><tspan x="160.27" y="156.3" font-family="Arial" font-size="10" fill="rgb(0, 0, 0)">F</tspan></text></g><g id="Solid"><path d="M163.82 181.53 L163.82 181.53 L163.32 182.4 L162.82 182.11 L162.82 158.3 L163.32 158.3 L163.82 158.3 Z" stroke="rgb(0, 0, 0)" stroke-width="0" fill-rule="evenodd" stroke-linejoin="miter" fill="rgb(0, 0, 0)" shape-rendering="geometricPrecision" /></g><g><text xml:space="preserve" text-anchor="start" text-rendering="geometricPrecision"><tspan x="186.25" y="171.3" font-family="Arial" font-size="10" fill="rgb(0, 0, 0)">F</tspan></text></g><g id="Solid"><path d="M164.32 182.4 L164.32 182.4 L163.32 182.4 L163.82 181.53 L185.12 169.24 L185.37 169.67 L185.62 170.1 Z" stroke="rgb(0, 0, 0)" stroke-width="0" fill-rule="evenodd" stroke-linejoin="miter" fill="rgb(0, 0, 0)" shape-rendering="geometricPrecision" /></g></g></g></svg>