<?xml version="1.0"?><svg xmlns="http://www.w3.org/2000/svg" xmlns:xlink="http://www.w3.org/1999/xlink" viewBox="191.59 32.04 252.41 246.2" preserveAspectRatio="xMidYMid" width="100%" height="100%"><clipPath id="335"><rect x="0.5" y="0.5" width="522.32" height="768.92" /></clipPath><g id="drawing"><rect x="191.59" y="32.04" width="100%" height="100%" fill="rgb(255, 255, 255)" /><g id="page" clip-path="url(#335)"><g><text xml:space="preserve" text-anchor="start" text-rendering="geometricPrecision"><tspan x="243" y="175.5" font-family="Arial" font-size="10" fill="rgb(0, 0, 0)">N</tspan></text></g><g><text xml:space="preserve" text-anchor="start" text-rendering="geometricPrecision"><tspan x="268.98" y="130.5" font-family="Arial" font-size="10" fill="rgb(0, 0, 0)">N</tspan></text></g><g id="Solid"><path d="M220.12 126.89 L220.12 126.89 L220.62 126.6 L221.12 126.89 L221.12 156.31 L220.62 156.6 L220.12 156.89 Z" stroke="rgb(0, 0, 0)" stroke-width="0" fill-rule="evenodd" stroke-linejoin="miter" fill="rgb(0, 0, 0)" shape-rendering="geometricPrecision" /><line x1="224.22" y1="128.68" x2="224.22" y2="154.52" stroke="rgb(0, 0, 0)" stroke-width="1" shape-rendering="auto" /></g><g id="Solid"><path d="M220.12 156.89 L220.12 156.89 L220.62 156.6 L221.12 156.31 L242.32 168.55 L242.07 168.98 L241.82 169.42 Z" stroke="rgb(0, 0, 0)" stroke-width="0" fill-rule="evenodd" stroke-linejoin="miter" fill="rgb(0, 0, 0)" shape-rendering="geometricPrecision" /></g><g id="Solid"><path d="M251.38 169.42 L251.38 169.42 L251.13 168.98 L250.88 168.55 L272.08 156.31 L272.58 156.6 L273.08 156.89 Z" stroke="rgb(0, 0, 0)" stroke-width="0" fill-rule="evenodd" stroke-linejoin="miter" fill="rgb(0, 0, 0)" shape-rendering="geometricPrecision" /></g><g id="Solid"><path d="M273.08 156.89 L273.08 156.89 L272.58 156.6 L272.08 156.31 L272.08 132.5 L272.58 132.5 L273.08 132.5 Z" stroke="rgb(0, 0, 0)" stroke-width="0" fill-rule="evenodd" stroke-linejoin="miter" fill="rgb(0, 0, 0)" shape-rendering="geometricPrecision" /></g><g id="Solid"><path d="M268.32 123.56 L268.32 123.56 L268.07 123.99 L267.82 124.43 L246.6 112.18 L246.6 111.6 L247.1 111.31 Z" stroke="rgb(0, 0, 0)" stroke-width="0" fill-rule="evenodd" stroke-linejoin="miter" fill="rgb(0, 0, 0)" shape-rendering="geometricPrecision" /><line x1="266.5" y1="126.72" x2="246.6" y2="115.23" stroke="rgb(0, 0, 0)" stroke-width="1" shape-rendering="auto" /></g><g id="Solid"><path d="M246.1 111.31 L246.1 111.31 L246.6 111.6 L246.6 112.18 L221.12 126.89 L220.62 126.6 L220.62 126.02 Z" stroke="rgb(0, 0, 0)" stroke-width="0" fill-rule="evenodd" stroke-linejoin="miter" fill="rgb(0, 0, 0)" shape-rendering="geometricPrecision" /></g><g><text xml:space="preserve" text-anchor="start" text-rendering="geometricPrecision"><tspan x="294.66" y="175.5" font-family="Arial" font-size="10" fill="rgb(0, 0, 0)">O</tspan></text></g><g id="Solid"><line x1="273.48" y1="155.04" x2="294.37" y2="167.1" stroke="rgb(0, 0, 0)" stroke-width="1" shape-rendering="auto" /><path d="M271.78 157.64 L271.78 157.64 L270.78 158.22 L292.32 170.65 L292.82 169.79 Z" stroke="rgb(0, 0, 0)" stroke-width="0" fill-rule="evenodd" stroke-linejoin="miter" fill="rgb(0, 0, 0)" shape-rendering="geometricPrecision" /><path d="M273.08 154.23 L273.08 154.23 L273.08 155.39 L294.12 167.53 L294.62 166.67 Z" stroke="rgb(0, 0, 0)" stroke-width="0" fill-rule="evenodd" stroke-linejoin="miter" fill="rgb(0, 0, 0)" shape-rendering="geometricPrecision" /></g><g><text xml:space="preserve" text-anchor="start" text-rendering="geometricPrecision"><tspan x="191.59" y="115.5" font-family="Arial" font-size="10" fill="rgb(0, 0, 0)">F</tspan></text></g><g id="Solid"><path d="M220.62 126.02 L220.62 126.02 L220.62 126.6 L220.12 126.89 L198.78 114.57 L199.03 114.14 L199.28 113.7 Z" stroke="rgb(0, 0, 0)" stroke-width="0" fill-rule="evenodd" stroke-linejoin="miter" fill="rgb(0, 0, 0)" shape-rendering="geometricPrecision" /></g><g><text xml:space="preserve" text-anchor="end" text-rendering="geometricPrecision"><tspan x="250.2" y="85.5" font-family="Arial" font-size="10" fill="rgb(0, 0, 0)">HN</tspan></text></g><g id="Solid"><path d="M247.1 111.31 L247.1 111.31 L246.6 111.6 L246.1 111.31 L246.1 87.5 L246.6 87.5 L247.1 87.5 Z" stroke="rgb(0, 0, 0)" stroke-width="0" fill-rule="evenodd" stroke-linejoin="miter" fill="rgb(0, 0, 0)" shape-rendering="geometricPrecision" /></g><g id="Solid"><path d="M251.38 79.42 L251.38 79.42 L251.13 78.98 L250.88 78.55 L272.58 66.02 L272.58 66.6 L272.58 67.18 Z" stroke="rgb(0, 0, 0)" stroke-width="0" fill-rule="evenodd" stroke-linejoin="miter" fill="rgb(0, 0, 0)" shape-rendering="geometricPrecision" /></g><g><text xml:space="preserve" text-anchor="start" text-rendering="geometricPrecision"><tspan x="294.66" y="85.5" font-family="Arial" font-size="10" fill="rgb(0, 0, 0)">O</tspan></text></g><g id="Solid"><path d="M272.58 67.18 L272.58 67.18 L272.58 66.6 L272.58 66.02 L294.02 78.4 L293.77 78.83 L293.52 79.27 Z" stroke="rgb(0, 0, 0)" stroke-width="0" fill-rule="evenodd" stroke-linejoin="miter" fill="rgb(0, 0, 0)" shape-rendering="geometricPrecision" /></g><g><text xml:space="preserve" text-anchor="start" text-rendering="geometricPrecision"><tspan x="268.68" y="40.5" font-family="Arial" font-size="10" fill="rgb(0, 0, 0)">O</tspan></text></g><g id="Solid"><line x1="270.78" y1="66.6" x2="270.78" y2="42.7" stroke="rgb(0, 0, 0)" stroke-width="1" shape-rendering="auto" /><path d="M273.88 66.77 L273.88 66.77 L274.88 67.35 L274.88 42.7 L273.88 42.7 Z" stroke="rgb(0, 0, 0)" stroke-width="0" fill-rule="evenodd" stroke-linejoin="miter" fill="rgb(0, 0, 0)" shape-rendering="geometricPrecision" /><path d="M270.28 67.35 L270.28 67.35 L271.28 66.77 L271.28 42.7 L270.28 42.7 Z" stroke="rgb(0, 0, 0)" stroke-width="0" fill-rule="evenodd" stroke-linejoin="miter" fill="rgb(0, 0, 0)" shape-rendering="geometricPrecision" /></g><g id="Solid"><path d="M303.68 79.22 L303.68 79.22 L303.43 78.79 L303.18 78.35 L324.54 66.02 L324.54 66.6 L324.54 67.18 Z" stroke="rgb(0, 0, 0)" stroke-width="0" fill-rule="evenodd" stroke-linejoin="miter" fill="rgb(0, 0, 0)" shape-rendering="geometricPrecision" /></g><g id="Solid"><path d="M324.54 67.18 L324.54 67.18 L324.54 66.6 L324.54 66.02 L350.52 81.02 L350.52 81.6 L350.52 82.18 Z" stroke="rgb(0, 0, 0)" stroke-width="0" fill-rule="evenodd" stroke-linejoin="miter" fill="rgb(0, 0, 0)" shape-rendering="geometricPrecision" /></g><g id="Solid"><path d="M350.52 82.18 L350.52 82.18 L350.52 81.6 L350.52 81.02 L376.5 66.02 L376.5 66.6 L376.5 67.18 Z" stroke="rgb(0, 0, 0)" stroke-width="0" fill-rule="evenodd" stroke-linejoin="miter" fill="rgb(0, 0, 0)" shape-rendering="geometricPrecision" /></g><g id="Solid"><path d="M376.5 67.18 L376.5 67.18 L376.5 66.6 L376.5 66.02 L402.48 81.02 L402.48 81.6 L402.48 82.18 Z" stroke="rgb(0, 0, 0)" stroke-width="0" fill-rule="evenodd" stroke-linejoin="miter" fill="rgb(0, 0, 0)" shape-rendering="geometricPrecision" /></g><g><text xml:space="preserve" text-anchor="start" text-rendering="geometricPrecision"><tspan x="424.87" y="70.5" font-family="Arial" font-size="10" fill="rgb(0, 0, 0)">CH</tspan><tspan font-family="Arial" dy="2.26" font-size="7.5" fill="rgb(0, 0, 0)">3</tspan></text></g><g id="Solid"><path d="M402.48 82.18 L402.48 82.18 L402.48 81.6 L402.48 81.02 L423.52 68.88 L423.77 69.31 L424.02 69.75 Z" stroke="rgb(0, 0, 0)" stroke-width="0" fill-rule="evenodd" stroke-linejoin="miter" fill="rgb(0, 0, 0)" shape-rendering="geometricPrecision" /></g><g id="Solid"><path d="M246.1 177.5 L246.1 177.5 L246.6 177.5 L247.1 177.5 L247.1 201.35 L246.6 201.6 L246.1 201.35 Z" stroke="rgb(0, 0, 0)" stroke-width="0" fill-rule="evenodd" stroke-linejoin="miter" fill="rgb(0, 0, 0)" shape-rendering="geometricPrecision" /></g><g><text xml:space="preserve" text-anchor="start" text-rendering="geometricPrecision"><tspan x="218.43" y="223.13" font-family="Arial" font-size="10" fill="rgb(0, 0, 0)">O</tspan></text></g><g id="Solid"><path d="M246.1 201.35 L246.1 201.35 L246.6 201.6 L246.6 202.22 L227.31 216.23 L227.02 215.82 L226.72 215.42 Z" stroke="rgb(0, 0, 0)" stroke-width="0" fill-rule="evenodd" stroke-linejoin="miter" fill="rgb(0, 0, 0)" shape-rendering="geometricPrecision" /></g><g id="Solid"><path d="M223.76 225.26 L223.76 225.26 L224.24 225.1 L224.71 224.95 L231.96 247.27 L231.6 247.77 L231.05 247.68 Z" stroke="rgb(0, 0, 0)" stroke-width="0" fill-rule="evenodd" stroke-linejoin="miter" fill="rgb(0, 0, 0)" shape-rendering="geometricPrecision" /></g><g id="Solid"><path d="M231.85 248.27 L231.85 248.27 L231.6 247.77 L231.96 247.27 L261.24 247.27 L261.6 247.77 L261.35 248.27 Z" stroke="rgb(0, 0, 0)" stroke-width="0" fill-rule="evenodd" stroke-linejoin="miter" fill="rgb(0, 0, 0)" shape-rendering="geometricPrecision" /></g><g id="Solid"><path d="M262.15 247.68 L262.15 247.68 L261.6 247.77 L261.24 247.27 L270.28 219.42 L270.87 219.23 L271.27 219.63 Z" stroke="rgb(0, 0, 0)" stroke-width="0" fill-rule="evenodd" stroke-linejoin="miter" fill="rgb(0, 0, 0)" shape-rendering="geometricPrecision" /></g><g id="Solid"><path d="M270.96 218.68 L270.96 218.68 L270.87 219.23 L270.28 219.42 L246.6 202.22 L246.6 201.6 L247.1 201.35 Z" stroke="rgb(0, 0, 0)" stroke-width="0" fill-rule="evenodd" stroke-linejoin="miter" fill="rgb(0, 0, 0)" shape-rendering="geometricPrecision" /></g><g><text xml:space="preserve" text-anchor="end" text-rendering="geometricPrecision"><tspan x="217.57" y="275.94" font-family="Arial" font-size="10" fill="rgb(0, 0, 0)">H</tspan><tspan font-family="Arial" dy="2.26" font-size="7.5" fill="rgb(0, 0, 0)">3</tspan><tspan font-family="Arial" dy="-2.26" font-size="10" fill="rgb(0, 0, 0)">C</tspan></text></g><g id="Solid"><path d="M231.05 247.68 L231.05 247.68 L231.6 247.77 L231.85 248.27 L217.76 267.68 L217.35 267.38 L216.95 267.09 Z" stroke="rgb(0, 0, 0)" stroke-width="0" fill-rule="evenodd" stroke-linejoin="miter" fill="rgb(0, 0, 0)" shape-rendering="geometricPrecision" /></g><g><text xml:space="preserve" text-anchor="start" text-rendering="geometricPrecision"><tspan x="275.33" y="275.94" font-family="Arial" font-size="10" fill="rgb(0, 0, 0)">OH</tspan></text></g><g id="Solid"><path d="M261.35 248.27 L261.35 248.27 L261.6 247.77 L262.15 247.68 L276.32 267.19 L275.92 267.48 L275.51 267.78 Z" stroke="rgb(0, 0, 0)" stroke-width="0" fill-rule="evenodd" stroke-linejoin="miter" fill="rgb(0, 0, 0)" shape-rendering="geometricPrecision" /></g><g><text xml:space="preserve" text-anchor="start" text-rendering="geometricPrecision"><tspan x="295.5" y="213.86" font-family="Arial" font-size="10" fill="rgb(0, 0, 0)">OH</tspan></text></g><g id="Solid"><path d="M271.27 219.63 L271.27 219.63 L270.87 219.23 L270.96 218.68 L293.94 211.21 L294.1 211.68 L294.25 212.16 Z" stroke="rgb(0, 0, 0)" stroke-width="0" fill-rule="evenodd" stroke-linejoin="miter" fill="rgb(0, 0, 0)" shape-rendering="geometricPrecision" /></g></g></g></svg>