<?xml version="1.0"?><svg xmlns="http://www.w3.org/2000/svg" xmlns:xlink="http://www.w3.org/1999/xlink" viewBox="84.52 61.14 312.52 263.58" preserveAspectRatio="xMidYMid" width="100%" height="100%"><clipPath id="436"><rect x="0.5" y="0.5" width="522.32" height="768.92" /></clipPath><g id="drawing"><rect x="84.52" y="61.14" width="100%" height="100%" fill="rgb(255, 255, 255)" /><g id="page" clip-path="url(#436)"><g><text xml:space="preserve" text-anchor="start" text-rendering="geometricPrecision"><tspan x="315.25" y="249.6" font-family="Arial" font-size="10" fill="rgb(0, 0, 0)">N</tspan></text></g><g id="Solid"><path d="M319.35 275.41 L319.35 275.41 L318.85 275.7 L318.35 275.41 L318.35 251.6 L318.85 251.6 L319.35 251.6 Z" stroke="rgb(0, 0, 0)" stroke-width="0" fill-rule="evenodd" stroke-linejoin="miter" fill="rgb(0, 0, 0)" shape-rendering="geometricPrecision" /><line x1="315.25" y1="273.62" x2="315.25" y2="251.6" stroke="rgb(0, 0, 0)" stroke-width="1" shape-rendering="auto" /></g><g id="Solid"><path d="M314.62 242.68 L314.62 242.68 L314.37 243.11 L314.12 243.55 L292.87 231.28 L292.87 230.7 L292.87 230.12 Z" stroke="rgb(0, 0, 0)" stroke-width="0" fill-rule="evenodd" stroke-linejoin="miter" fill="rgb(0, 0, 0)" shape-rendering="geometricPrecision" /></g><g id="Solid"><path d="M292.87 230.12 L292.87 230.12 L292.87 230.7 L292.87 231.28 L267.38 245.99 L266.88 245.7 L266.38 245.41 Z" stroke="rgb(0, 0, 0)" stroke-width="0" fill-rule="evenodd" stroke-linejoin="miter" fill="rgb(0, 0, 0)" shape-rendering="geometricPrecision" /><line x1="292.87" y1="234.86" x2="270.48" y2="247.78" stroke="rgb(0, 0, 0)" stroke-width="1" shape-rendering="auto" /></g><g id="Solid"><path d="M266.38 245.41 L266.38 245.41 L266.88 245.7 L267.38 245.99 L267.38 275.41 L266.88 275.7 L266.38 275.41 Z" stroke="rgb(0, 0, 0)" stroke-width="0" fill-rule="evenodd" stroke-linejoin="miter" fill="rgb(0, 0, 0)" shape-rendering="geometricPrecision" /></g><g id="Solid"><path d="M266.88 276.28 L266.88 276.28 L266.88 275.7 L267.38 275.41 L292.87 290.12 L292.87 290.7 L292.87 291.28 Z" stroke="rgb(0, 0, 0)" stroke-width="0" fill-rule="evenodd" stroke-linejoin="miter" fill="rgb(0, 0, 0)" shape-rendering="geometricPrecision" /><line x1="270.48" y1="273.62" x2="292.87" y2="286.54" stroke="rgb(0, 0, 0)" stroke-width="1" shape-rendering="auto" /></g><g id="Solid"><path d="M292.87 291.28 L292.87 291.28 L292.87 290.7 L292.87 290.12 L318.35 275.41 L318.85 275.7 L318.85 276.28 Z" stroke="rgb(0, 0, 0)" stroke-width="0" fill-rule="evenodd" stroke-linejoin="miter" fill="rgb(0, 0, 0)" shape-rendering="geometricPrecision" /></g><g id="Solid"><path d="M318.85 276.28 L318.85 276.28 L318.85 275.7 L319.35 275.41 L344.83 290.12 L344.83 290.7 L344.83 291.28 Z" stroke="rgb(0, 0, 0)" stroke-width="0" fill-rule="evenodd" stroke-linejoin="miter" fill="rgb(0, 0, 0)" shape-rendering="geometricPrecision" /></g><g><text xml:space="preserve" text-anchor="start" text-rendering="geometricPrecision"><tspan x="340.93" y="324.6" font-family="Arial" font-size="10" fill="rgb(0, 0, 0)">O</tspan></text></g><g id="Solid"><line x1="346.63" y1="290.7" x2="346.63" y2="315.4" stroke="rgb(0, 0, 0)" stroke-width="1" shape-rendering="auto" /><path d="M343.53 290.53 L343.53 290.53 L342.53 289.95 L342.53 315.4 L343.53 315.4 Z" stroke="rgb(0, 0, 0)" stroke-width="0" fill-rule="evenodd" stroke-linejoin="miter" fill="rgb(0, 0, 0)" shape-rendering="geometricPrecision" /><path d="M347.13 289.95 L347.13 289.95 L346.13 290.53 L346.13 315.4 L347.13 315.4 Z" stroke="rgb(0, 0, 0)" stroke-width="0" fill-rule="evenodd" stroke-linejoin="miter" fill="rgb(0, 0, 0)" shape-rendering="geometricPrecision" /></g><g><text xml:space="preserve" text-anchor="start" text-rendering="geometricPrecision"><tspan x="367.21" y="271.32" font-family="Arial" font-size="10" fill="rgb(0, 0, 0)">H</tspan><tspan x="367.21" y="281.51" font-family="Arial" font-size="10" fill="rgb(0, 0, 0)">N</tspan></text></g><g id="Solid"><path d="M344.83 291.28 L344.83 291.28 L344.83 290.7 L344.83 290.12 L366.02 277.89 L366.27 278.32 L366.52 278.76 Z" stroke="rgb(0, 0, 0)" stroke-width="0" fill-rule="evenodd" stroke-linejoin="miter" fill="rgb(0, 0, 0)" shape-rendering="geometricPrecision" /></g><g id="Solid"><path d="M375.18 278.8 L375.18 278.8 L375.43 278.37 L375.68 277.94 L397.04 290.27 L396.79 290.7 L396.54 291.13 Z" stroke="rgb(0, 0, 0)" stroke-width="0" fill-rule="evenodd" stroke-linejoin="miter" fill="rgb(0, 0, 0)" shape-rendering="geometricPrecision" /></g><g><text xml:space="preserve" text-anchor="start" text-rendering="geometricPrecision"><tspan x="237" y="294.6" font-family="Arial" font-size="10" fill="rgb(0, 0, 0)">O</tspan></text></g><g id="Solid"><path d="M266.38 275.41 L266.38 275.41 L266.88 275.7 L266.88 276.28 L246.08 288.29 L245.83 287.85 L245.58 287.42 Z" stroke="rgb(0, 0, 0)" stroke-width="0" fill-rule="evenodd" stroke-linejoin="miter" fill="rgb(0, 0, 0)" shape-rendering="geometricPrecision" /></g><g id="Solid"><path d="M236.32 287.48 L236.32 287.48 L236.07 287.91 L235.82 288.34 L214.92 276.28 L214.92 275.7 L215.42 275.41 Z" stroke="rgb(0, 0, 0)" stroke-width="0" fill-rule="evenodd" stroke-linejoin="miter" fill="rgb(0, 0, 0)" shape-rendering="geometricPrecision" /></g><g id="Solid"><path d="M215.42 275.41 L215.42 275.41 L214.92 275.7 L214.42 275.41 L214.42 245.99 L214.92 245.7 L215.42 245.41 Z" stroke="rgb(0, 0, 0)" stroke-width="0" fill-rule="evenodd" stroke-linejoin="miter" fill="rgb(0, 0, 0)" shape-rendering="geometricPrecision" /><line x1="211.32" y1="273.62" x2="211.32" y2="247.78" stroke="rgb(0, 0, 0)" stroke-width="1" shape-rendering="auto" /></g><g id="Solid"><path d="M215.42 245.41 L215.42 245.41 L214.92 245.7 L214.42 245.99 L188.94 231.28 L188.94 230.7 L188.94 230.12 Z" stroke="rgb(0, 0, 0)" stroke-width="0" fill-rule="evenodd" stroke-linejoin="miter" fill="rgb(0, 0, 0)" shape-rendering="geometricPrecision" /></g><g id="Solid"><path d="M188.94 230.12 L188.94 230.12 L188.94 230.7 L188.94 231.28 L163.46 245.99 L162.96 245.7 L162.96 245.12 Z" stroke="rgb(0, 0, 0)" stroke-width="0" fill-rule="evenodd" stroke-linejoin="miter" fill="rgb(0, 0, 0)" shape-rendering="geometricPrecision" /><line x1="188.94" y1="234.86" x2="166.56" y2="247.78" stroke="rgb(0, 0, 0)" stroke-width="1" shape-rendering="auto" /></g><g id="Solid"><path d="M162.46 245.99 L162.46 245.99 L162.96 245.7 L163.46 245.99 L163.46 275.41 L162.96 275.7 L162.46 275.99 Z" stroke="rgb(0, 0, 0)" stroke-width="0" fill-rule="evenodd" stroke-linejoin="miter" fill="rgb(0, 0, 0)" shape-rendering="geometricPrecision" /></g><g id="Solid"><path d="M162.46 275.99 L162.46 275.99 L162.96 275.7 L163.46 275.41 L188.94 290.12 L188.94 290.7 L188.94 291.28 Z" stroke="rgb(0, 0, 0)" stroke-width="0" fill-rule="evenodd" stroke-linejoin="miter" fill="rgb(0, 0, 0)" shape-rendering="geometricPrecision" /><line x1="166.56" y1="273.62" x2="188.94" y2="286.54" stroke="rgb(0, 0, 0)" stroke-width="1" shape-rendering="auto" /></g><g id="Solid"><path d="M188.94 291.28 L188.94 291.28 L188.94 290.7 L188.94 290.12 L214.42 275.41 L214.92 275.7 L214.92 276.28 Z" stroke="rgb(0, 0, 0)" stroke-width="0" fill-rule="evenodd" stroke-linejoin="miter" fill="rgb(0, 0, 0)" shape-rendering="geometricPrecision" /></g><g><text xml:space="preserve" text-anchor="end" text-rendering="geometricPrecision"><tspan x="140.58" y="234.6" font-family="Arial" font-size="10" fill="rgb(0, 0, 0)">HN</tspan></text></g><g id="Solid"><path d="M162.96 245.12 L162.96 245.12 L162.96 245.7 L162.46 245.99 L141.28 233.76 L141.53 233.33 L141.78 232.9 Z" stroke="rgb(0, 0, 0)" stroke-width="0" fill-rule="evenodd" stroke-linejoin="miter" fill="rgb(0, 0, 0)" shape-rendering="geometricPrecision" /></g><g id="Solid"><path d="M137.48 225.5 L137.48 225.5 L136.98 225.5 L136.48 225.5 L136.48 200.99 L136.98 200.7 L137.48 200.41 Z" stroke="rgb(0, 0, 0)" stroke-width="0" fill-rule="evenodd" stroke-linejoin="miter" fill="rgb(0, 0, 0)" shape-rendering="geometricPrecision" /></g><g><text xml:space="preserve" text-anchor="end" text-rendering="geometricPrecision"><tspan x="114.6" y="189.6" font-family="Arial" font-size="10" fill="rgb(0, 0, 0)">HN</tspan></text></g><g id="Solid"><path d="M137.48 200.41 L137.48 200.41 L136.98 200.7 L136.48 200.99 L115.28 188.75 L115.53 188.32 L115.78 187.88 Z" stroke="rgb(0, 0, 0)" stroke-width="0" fill-rule="evenodd" stroke-linejoin="miter" fill="rgb(0, 0, 0)" shape-rendering="geometricPrecision" /></g><g><text xml:space="preserve" text-anchor="start" text-rendering="geometricPrecision"><tspan x="159.06" y="189.6" font-family="Arial" font-size="10" fill="rgb(0, 0, 0)">O</tspan></text></g><g id="Solid"><line x1="136.08" y1="199.14" x2="156.97" y2="187.08" stroke="rgb(0, 0, 0)" stroke-width="1" shape-rendering="auto" /><path d="M137.48 201.91 L137.48 201.91 L137.48 203.07 L159.02 190.63 L158.52 189.77 Z" stroke="rgb(0, 0, 0)" stroke-width="0" fill-rule="evenodd" stroke-linejoin="miter" fill="rgb(0, 0, 0)" shape-rendering="geometricPrecision" /><path d="M135.18 199.08 L135.18 199.08 L136.18 199.66 L157.22 187.51 L156.72 186.65 Z" stroke="rgb(0, 0, 0)" stroke-width="0" fill-rule="evenodd" stroke-linejoin="miter" fill="rgb(0, 0, 0)" shape-rendering="geometricPrecision" /></g><g id="Solid"><path d="M111.5 180.5 L111.5 180.5 L111 180.5 L110.5 180.5 L110.5 155.99 L111 155.7 L111.5 155.99 Z" stroke="rgb(0, 0, 0)" stroke-width="0" fill-rule="evenodd" stroke-linejoin="miter" fill="rgb(0, 0, 0)" shape-rendering="geometricPrecision" /></g><g id="Solid"><path d="M111.5 155.99 L111.5 155.99 L111 155.7 L111 155.12 L136.48 140.41 L136.98 140.7 L137.48 140.99 Z" stroke="rgb(0, 0, 0)" stroke-width="0" fill-rule="evenodd" stroke-linejoin="miter" fill="rgb(0, 0, 0)" shape-rendering="geometricPrecision" /><line x1="111" y1="151.54" x2="133.38" y2="138.62" stroke="rgb(0, 0, 0)" stroke-width="1" shape-rendering="auto" /></g><g id="Solid"><path d="M137.48 140.99 L137.48 140.99 L136.98 140.7 L136.48 140.41 L136.48 110.99 L136.98 110.7 L137.48 110.99 Z" stroke="rgb(0, 0, 0)" stroke-width="0" fill-rule="evenodd" stroke-linejoin="miter" fill="rgb(0, 0, 0)" shape-rendering="geometricPrecision" /></g><g id="Solid"><path d="M136.98 110.12 L136.98 110.12 L136.98 110.7 L136.48 110.99 L111 96.28 L111 95.7 L111.5 95.41 Z" stroke="rgb(0, 0, 0)" stroke-width="0" fill-rule="evenodd" stroke-linejoin="miter" fill="rgb(0, 0, 0)" shape-rendering="geometricPrecision" /><line x1="133.38" y1="112.78" x2="111" y2="99.86" stroke="rgb(0, 0, 0)" stroke-width="1" shape-rendering="auto" /></g><g id="Solid"><path d="M110.5 95.41 L110.5 95.41 L111 95.7 L111 96.28 L85.52 110.99 L85.02 110.7 L84.52 110.41 Z" stroke="rgb(0, 0, 0)" stroke-width="0" fill-rule="evenodd" stroke-linejoin="miter" fill="rgb(0, 0, 0)" shape-rendering="geometricPrecision" /></g><g id="Solid"><path d="M84.52 110.41 L84.52 110.41 L85.02 110.7 L85.52 110.99 L85.52 140.41 L85.02 140.7 L84.52 140.99 Z" stroke="rgb(0, 0, 0)" stroke-width="0" fill-rule="evenodd" stroke-linejoin="miter" fill="rgb(0, 0, 0)" shape-rendering="geometricPrecision" /><line x1="88.62" y1="112.78" x2="88.62" y2="138.62" stroke="rgb(0, 0, 0)" stroke-width="1" shape-rendering="auto" /></g><g id="Solid"><path d="M84.52 140.99 L84.52 140.99 L85.02 140.7 L85.52 140.41 L111 155.12 L111 155.7 L110.5 155.99 Z" stroke="rgb(0, 0, 0)" stroke-width="0" fill-rule="evenodd" stroke-linejoin="miter" fill="rgb(0, 0, 0)" shape-rendering="geometricPrecision" /></g><g><text xml:space="preserve" text-anchor="start" text-rendering="geometricPrecision"><tspan x="107.4" y="69.6" font-family="Arial" font-size="10" fill="rgb(0, 0, 0)">Cl</tspan></text></g><g id="Solid"><path d="M111.5 95.41 L111.5 95.41 L111 95.7 L110.5 95.41 L110.5 71.8 L111 71.8 L111.5 71.8 Z" stroke="rgb(0, 0, 0)" stroke-width="0" fill-rule="evenodd" stroke-linejoin="miter" fill="rgb(0, 0, 0)" shape-rendering="geometricPrecision" /></g><g id="Solid"><path d="M137.48 110.99 L137.48 110.99 L136.98 110.7 L136.98 110.12 L162.46 95.41 L162.96 95.7 L162.96 96.28 Z" stroke="rgb(0, 0, 0)" stroke-width="0" fill-rule="evenodd" stroke-linejoin="miter" fill="rgb(0, 0, 0)" shape-rendering="geometricPrecision" /></g><g><text xml:space="preserve" text-anchor="start" text-rendering="geometricPrecision"><tspan x="185.89" y="84.6" font-family="Arial" font-size="10" fill="rgb(0, 0, 0)">F</tspan></text></g><g id="Solid"><path d="M163.96 95.7 L163.96 95.7 L162.96 95.7 L163.46 94.83 L184.82 82.5 L185.07 82.94 L185.32 83.37 Z" stroke="rgb(0, 0, 0)" stroke-width="0" fill-rule="evenodd" stroke-linejoin="miter" fill="rgb(0, 0, 0)" shape-rendering="geometricPrecision" /></g><g><text xml:space="preserve" text-anchor="start" text-rendering="geometricPrecision"><tspan x="159.91" y="69.6" font-family="Arial" font-size="10" fill="rgb(0, 0, 0)">F</tspan></text></g><g id="Solid"><path d="M163.46 94.83 L163.46 94.83 L162.96 95.7 L162.46 95.41 L162.46 71.6 L162.96 71.6 L163.46 71.6 Z" stroke="rgb(0, 0, 0)" stroke-width="0" fill-rule="evenodd" stroke-linejoin="miter" fill="rgb(0, 0, 0)" shape-rendering="geometricPrecision" /></g><g><text xml:space="preserve" text-anchor="start" text-rendering="geometricPrecision"><tspan x="185.89" y="114.6" font-family="Arial" font-size="10" fill="rgb(0, 0, 0)">F</tspan></text></g><g id="Solid"><path d="M162.96 96.28 L162.96 96.28 L162.96 95.7 L163.96 95.7 L185.32 108.03 L185.07 108.46 L184.82 108.9 Z" stroke="rgb(0, 0, 0)" stroke-width="0" fill-rule="evenodd" stroke-linejoin="miter" fill="rgb(0, 0, 0)" shape-rendering="geometricPrecision" /></g></g></g></svg>