<?xml version="1.0"?><svg xmlns="http://www.w3.org/2000/svg" xmlns:xlink="http://www.w3.org/1999/xlink" viewBox="87.41 50.36 178.25 126.64" preserveAspectRatio="xMidYMid" width="100%" height="100%"><clipPath id="492"><rect x="0.5" y="0.5" width="522.32" height="768.92" /></clipPath><g id="drawing"><rect x="87.41" y="50.36" width="100%" height="100%" fill="rgb(255, 255, 255)" /><g id="page" clip-path="url(#492)"><g id="Solid"><path d="M139.12 101.71 L139.12 101.71 L139.62 102 L140.12 102.29 L140.12 131.71 L139.62 132 L139.12 131.71 Z" stroke="rgb(0, 0, 0)" stroke-width="0" fill-rule="evenodd" stroke-linejoin="miter" fill="rgb(0, 0, 0)" shape-rendering="geometricPrecision" /><line x1="143.22" y1="104.08" x2="143.22" y2="129.92" stroke="rgb(0, 0, 0)" stroke-width="1" shape-rendering="auto" /></g><g id="Solid"><path d="M139.62 132.58 L139.62 132.58 L139.62 132 L140.12 131.71 L165.6 146.42 L165.6 147 L165.6 147.58 Z" stroke="rgb(0, 0, 0)" stroke-width="0" fill-rule="evenodd" stroke-linejoin="miter" fill="rgb(0, 0, 0)" shape-rendering="geometricPrecision" /></g><g id="Solid"><path d="M165.6 147.58 L165.6 147.58 L165.6 147 L165.6 146.42 L191.08 131.71 L191.58 132 L191.58 132.58 Z" stroke="rgb(0, 0, 0)" stroke-width="0" fill-rule="evenodd" stroke-linejoin="miter" fill="rgb(0, 0, 0)" shape-rendering="geometricPrecision" /><line x1="165.6" y1="142.84" x2="187.98" y2="129.92" stroke="rgb(0, 0, 0)" stroke-width="1" shape-rendering="auto" /></g><g id="Solid"><path d="M192.08 131.71 L192.08 131.71 L191.58 132 L191.08 131.71 L191.08 102.29 L191.58 102 L192.08 102.29 Z" stroke="rgb(0, 0, 0)" stroke-width="0" fill-rule="evenodd" stroke-linejoin="miter" fill="rgb(0, 0, 0)" shape-rendering="geometricPrecision" /></g><g id="Solid"><path d="M191.58 101.42 L191.58 101.42 L191.58 102 L191.08 102.29 L165.6 87.58 L165.6 87 L166.1 86.71 Z" stroke="rgb(0, 0, 0)" stroke-width="0" fill-rule="evenodd" stroke-linejoin="miter" fill="rgb(0, 0, 0)" shape-rendering="geometricPrecision" /><line x1="187.98" y1="104.08" x2="165.6" y2="91.16" stroke="rgb(0, 0, 0)" stroke-width="1" shape-rendering="auto" /></g><g id="Solid"><path d="M165.1 86.71 L165.1 86.71 L165.6 87 L165.6 87.58 L140.12 102.29 L139.62 102 L139.12 101.71 Z" stroke="rgb(0, 0, 0)" stroke-width="0" fill-rule="evenodd" stroke-linejoin="miter" fill="rgb(0, 0, 0)" shape-rendering="geometricPrecision" /></g><g id="Solid"><path d="M139.12 131.71 L139.12 131.71 L139.62 132 L139.62 132.58 L114.14 147.29 L113.64 147 L113.64 146.42 Z" stroke="rgb(0, 0, 0)" stroke-width="0" fill-rule="evenodd" stroke-linejoin="miter" fill="rgb(0, 0, 0)" shape-rendering="geometricPrecision" /></g><g id="Solid"><path d="M113.14 147.87 L113.14 147.87 L113.64 147 L114.14 147.29 L114.14 177 L113.64 177 L113.14 177 Z" stroke="rgb(0, 0, 0)" stroke-width="0" fill-rule="evenodd" stroke-linejoin="miter" fill="rgb(0, 0, 0)" shape-rendering="geometricPrecision" /></g><g id="Solid"><path d="M112.64 147 L112.64 147 L113.64 147 L113.14 147.87 L87.91 162.43 L87.66 162 L87.41 161.57 Z" stroke="rgb(0, 0, 0)" stroke-width="0" fill-rule="evenodd" stroke-linejoin="miter" fill="rgb(0, 0, 0)" shape-rendering="geometricPrecision" /></g><g id="Solid"><path d="M113.64 146.42 L113.64 146.42 L113.64 147 L112.64 147 L87.41 132.43 L87.66 132 L87.91 131.57 Z" stroke="rgb(0, 0, 0)" stroke-width="0" fill-rule="evenodd" stroke-linejoin="miter" fill="rgb(0, 0, 0)" shape-rendering="geometricPrecision" /></g><g id="Solid"><path d="M166.1 86.71 L166.1 86.71 L165.6 87 L165.1 86.71 L165.1 57 L165.6 57 L166.1 57 Z" stroke="rgb(0, 0, 0)" stroke-width="0" fill-rule="evenodd" stroke-linejoin="miter" fill="rgb(0, 0, 0)" shape-rendering="geometricPrecision" /></g><g id="Solid"><path d="M191.58 132.58 L191.58 132.58 L191.58 132 L192.08 131.71 L217.81 146.57 L217.56 147 L217.31 147.43 Z" stroke="rgb(0, 0, 0)" stroke-width="0" fill-rule="evenodd" stroke-linejoin="miter" fill="rgb(0, 0, 0)" shape-rendering="geometricPrecision" /></g><g id="Solid"><path d="M192.08 102.29 L192.08 102.29 L191.58 102 L191.58 101.42 L217.09 86.69 L217.56 87 L217.59 87.56 Z" stroke="rgb(0, 0, 0)" stroke-width="0" fill-rule="evenodd" stroke-linejoin="miter" fill="rgb(0, 0, 0)" shape-rendering="geometricPrecision" /></g><g><text xml:space="preserve" text-anchor="start" text-rendering="geometricPrecision"><tspan x="241.37" y="103.1" font-family="Arial" font-size="10" fill="rgb(0, 0, 0)">N</tspan></text></g><g><text xml:space="preserve" text-anchor="end" text-rendering="geometricPrecision"><tspan x="224.3" y="61.06" font-family="Arial" font-size="10" fill="rgb(0, 0, 0)">HN</tspan></text></g><g id="Solid"><path d="M217.59 87.56 L217.59 87.56 L217.56 87 L218.1 86.69 L240.58 96.7 L240.37 97.15 L240.17 97.61 Z" stroke="rgb(0, 0, 0)" stroke-width="0" fill-rule="evenodd" stroke-linejoin="miter" fill="rgb(0, 0, 0)" shape-rendering="geometricPrecision" /><line x1="221.41" y1="84.77" x2="241.84" y2="93.86" stroke="rgb(0, 0, 0)" stroke-width="1" shape-rendering="auto" /></g><g id="Solid"><path d="M249.51 94.91 L249.51 94.91 L249.14 94.57 L248.77 94.24 L264.43 76.85 L265.04 76.91 L265.65 76.97 Z" stroke="rgb(0, 0, 0)" stroke-width="0" fill-rule="evenodd" stroke-linejoin="miter" fill="rgb(0, 0, 0)" shape-rendering="geometricPrecision" /></g><g id="Solid"><path d="M265.65 76.97 L265.65 76.97 L265.04 76.91 L264.43 76.85 L249.79 51.49 L250.04 50.93 L250.29 50.37 Z" stroke="rgb(0, 0, 0)" stroke-width="0" fill-rule="evenodd" stroke-linejoin="miter" fill="rgb(0, 0, 0)" shape-rendering="geometricPrecision" /><line x1="260.61" y1="76.44" x2="248.23" y2="54.99" stroke="rgb(0, 0, 0)" stroke-width="1" shape-rendering="auto" /></g><g id="Solid"><path d="M250.29 50.37 L250.29 50.37 L250.04 50.93 L249.79 51.49 L225.56 56.64 L225.46 56.15 L225.35 55.66 Z" stroke="rgb(0, 0, 0)" stroke-width="0" fill-rule="evenodd" stroke-linejoin="miter" fill="rgb(0, 0, 0)" shape-rendering="geometricPrecision" /></g><g id="Solid"><path d="M219.58 63.04 L219.58 63.04 L220.08 63.09 L220.57 63.14 L218.1 86.69 L217.56 87 L217.09 86.69 Z" stroke="rgb(0, 0, 0)" stroke-width="0" fill-rule="evenodd" stroke-linejoin="miter" fill="rgb(0, 0, 0)" shape-rendering="geometricPrecision" /></g></g></g></svg>