<?xml version="1.0"?><svg xmlns="http://www.w3.org/2000/svg" xmlns:xlink="http://www.w3.org/1999/xlink" viewBox="144.35 80.64 52.46 49.99" preserveAspectRatio="xMidYMid" width="100%" height="100%"><clipPath id="502"><rect x="0.5" y="0.5" width="522.32" height="768.92" /></clipPath><g id="drawing"><rect x="144.35" y="80.64" width="100%" height="100%" fill="rgb(255, 255, 255)" /><g id="page" clip-path="url(#502)"><g id="Solid"><path d="M144.85 130.63 L144.85 130.63 L144.6 130.2 L144.35 129.77 L170.58 114.62 L170.58 115.2 L170.58 115.78 Z" stroke="rgb(0, 0, 0)" stroke-width="0" fill-rule="evenodd" stroke-linejoin="miter" fill="rgb(0, 0, 0)" shape-rendering="geometricPrecision" /></g><g id="Solid"><path d="M170.58 115.78 L170.58 115.78 L170.58 115.2 L170.58 114.62 L196.81 129.77 L196.56 130.2 L196.31 130.63 Z" stroke="rgb(0, 0, 0)" stroke-width="0" fill-rule="evenodd" stroke-linejoin="miter" fill="rgb(0, 0, 0)" shape-rendering="geometricPrecision" /></g><g><text xml:space="preserve" text-anchor="start" text-rendering="geometricPrecision"><tspan x="166.68" y="89.1" font-family="Arial" font-size="10" fill="rgb(0, 0, 0)">O</tspan></text></g><g id="Solid"><line x1="168.78" y1="115.2" x2="168.78" y2="91.3" stroke="rgb(0, 0, 0)" stroke-width="1" shape-rendering="auto" /><path d="M171.88 115.37 L171.88 115.37 L172.88 115.95 L172.88 91.3 L171.88 91.3 Z" stroke="rgb(0, 0, 0)" stroke-width="0" fill-rule="evenodd" stroke-linejoin="miter" fill="rgb(0, 0, 0)" shape-rendering="geometricPrecision" /><path d="M168.28 115.95 L168.28 115.95 L169.28 115.37 L169.28 91.3 L168.28 91.3 Z" stroke="rgb(0, 0, 0)" stroke-width="0" fill-rule="evenodd" stroke-linejoin="miter" fill="rgb(0, 0, 0)" shape-rendering="geometricPrecision" /></g></g></g></svg>