<?xml version="1.0"?><svg xmlns="http://www.w3.org/2000/svg" xmlns:xlink="http://www.w3.org/1999/xlink" viewBox="141 80.64 61.4 64.44" preserveAspectRatio="xMidYMid" width="100%" height="100%"><clipPath id="504"><rect x="0.5" y="0.5" width="522.32" height="768.92" /></clipPath><g id="drawing"><rect x="141" y="80.64" width="100%" height="100%" fill="rgb(255, 255, 255)" /><g id="page" clip-path="url(#504)"><g><text xml:space="preserve" text-anchor="start" text-rendering="geometricPrecision"><tspan x="141" y="134.1" font-family="Arial" font-size="10" fill="rgb(0, 0, 0)">H</tspan></text></g><g id="Wedged Hash End Bond"><path d="M150.73 130.12 L150.73 130.12 L147.73 124.93 L148.65 124.52 L151.55 129.54 Z" stroke="rgb(0, 0, 0)" stroke-width="0" fill-rule="evenodd" stroke-linejoin="miter" fill="rgb(0, 0, 0)" shape-rendering="geometricPrecision" /><path d="M153.14 128.39 L153.14 128.39 L150.44 123.71 L151.36 123.3 L153.96 127.8 Z" stroke="rgb(0, 0, 0)" stroke-width="0" fill-rule="evenodd" stroke-linejoin="miter" fill="rgb(0, 0, 0)" shape-rendering="geometricPrecision" /><path d="M155.55 126.65 L155.55 126.65 L153.15 122.49 L154.07 122.08 L156.37 126.06 Z" stroke="rgb(0, 0, 0)" stroke-width="0" fill-rule="evenodd" stroke-linejoin="miter" fill="rgb(0, 0, 0)" shape-rendering="geometricPrecision" /><path d="M157.96 124.91 L157.96 124.91 L155.86 121.27 L156.78 120.86 L158.78 124.32 Z" stroke="rgb(0, 0, 0)" stroke-width="0" fill-rule="evenodd" stroke-linejoin="miter" fill="rgb(0, 0, 0)" shape-rendering="geometricPrecision" /><path d="M160.37 123.17 L160.37 123.17 L158.57 120.05 L159.49 119.64 L161.19 122.58 Z" stroke="rgb(0, 0, 0)" stroke-width="0" fill-rule="evenodd" stroke-linejoin="miter" fill="rgb(0, 0, 0)" shape-rendering="geometricPrecision" /><path d="M162.78 121.43 L162.78 121.43 L161.28 118.83 L162.2 118.42 L163.6 120.85 Z" stroke="rgb(0, 0, 0)" stroke-width="0" fill-rule="evenodd" stroke-linejoin="miter" fill="rgb(0, 0, 0)" shape-rendering="geometricPrecision" /><path d="M165.19 119.7 L165.19 119.7 L163.99 117.62 L164.91 117.2 L166.01 119.11 Z" stroke="rgb(0, 0, 0)" stroke-width="0" fill-rule="evenodd" stroke-linejoin="miter" fill="rgb(0, 0, 0)" shape-rendering="geometricPrecision" /><path d="M167.6 117.96 L167.6 117.96 L166.7 116.4 L167.62 115.99 L168.42 117.37 Z" stroke="rgb(0, 0, 0)" stroke-width="0" fill-rule="evenodd" stroke-linejoin="miter" fill="rgb(0, 0, 0)" shape-rendering="geometricPrecision" /><path d="M170.01 116.22 L170.01 116.22 L169.41 115.18 L170.33 114.77 L170.83 115.63 Z" stroke="rgb(0, 0, 0)" stroke-width="0" fill-rule="evenodd" stroke-linejoin="miter" fill="rgb(0, 0, 0)" shape-rendering="geometricPrecision" /></g><g><text xml:space="preserve" text-anchor="start" text-rendering="geometricPrecision"><tspan x="192.96" y="134.1" font-family="Arial" font-size="10" fill="rgb(0, 0, 0)">Cl</tspan></text></g><g id="Solid"><path d="M170.8 115.9 L170.8 115.9 L170.58 115.2 L171.08 114.91 L192.22 127.12 L191.97 127.55 L191.72 127.98 Z" stroke="rgb(0, 0, 0)" stroke-width="0" fill-rule="evenodd" stroke-linejoin="miter" fill="rgb(0, 0, 0)" shape-rendering="geometricPrecision" /></g><g><text xml:space="preserve" text-anchor="start" text-rendering="geometricPrecision"><tspan x="166.98" y="89.1" font-family="Arial" font-size="10" fill="rgb(0, 0, 0)">Cl</tspan></text></g><g id="Solid"><path d="M171.08 114.91 L171.08 114.91 L170.58 115.2 L170.08 115.05 L170.08 91.3 L170.58 91.3 L171.08 91.3 Z" stroke="rgb(0, 0, 0)" stroke-width="0" fill-rule="evenodd" stroke-linejoin="miter" fill="rgb(0, 0, 0)" shape-rendering="geometricPrecision" /></g><g><text xml:space="preserve" text-anchor="start" text-rendering="geometricPrecision"><tspan x="151.98" y="145.08" font-family="Arial" font-size="10" fill="rgb(0, 0, 0)">H</tspan></text></g><g id="WedgeBegin"><path d="M170.08 115.05 L170.08 115.05 L170.58 115.2 L170.8 115.9 L161.01 137.77 L158.42 136.27 L155.82 134.77 Z" stroke="rgb(0, 0, 0)" stroke-width="0" fill-rule="evenodd" stroke-linejoin="miter" fill="rgb(0, 0, 0)" shape-rendering="geometricPrecision" /></g></g></g></svg>