<?xml version="1.0"?><svg xmlns="http://www.w3.org/2000/svg" xmlns:xlink="http://www.w3.org/1999/xlink" viewBox="103.55 82.82 104.42 19.6" preserveAspectRatio="xMidYMid" width="100%" height="100%"><clipPath id="520"><rect x="0.5" y="0.5" width="522.32" height="768.92" /></clipPath><g id="drawing"><rect x="103.55" y="82.82" width="100%" height="100%" fill="rgb(255, 255, 255)" /><g id="page" clip-path="url(#520)"><g id="Solid"><path d="M104.05 98.83 L104.05 98.83 L103.8 98.4 L103.55 97.97 L129.78 82.82 L129.78 83.4 L129.78 83.98 Z" stroke="rgb(0, 0, 0)" stroke-width="0" fill-rule="evenodd" stroke-linejoin="miter" fill="rgb(0, 0, 0)" shape-rendering="geometricPrecision" /></g><g><text xml:space="preserve" text-anchor="start" text-rendering="geometricPrecision"><tspan x="151.86" y="102.3" font-family="Arial" font-size="10" fill="rgb(0, 0, 0)">O</tspan></text></g><g id="Solid"><path d="M129.78 83.98 L129.78 83.98 L129.78 83.4 L129.78 82.82 L151.22 95.2 L150.97 95.63 L150.72 96.07 Z" stroke="rgb(0, 0, 0)" stroke-width="0" fill-rule="evenodd" stroke-linejoin="miter" fill="rgb(0, 0, 0)" shape-rendering="geometricPrecision" /></g><g id="Solid"><path d="M160.88 96.02 L160.88 96.02 L160.63 95.59 L160.38 95.15 L181.74 82.82 L181.74 83.4 L181.74 83.98 Z" stroke="rgb(0, 0, 0)" stroke-width="0" fill-rule="evenodd" stroke-linejoin="miter" fill="rgb(0, 0, 0)" shape-rendering="geometricPrecision" /></g><g id="Solid"><path d="M181.74 83.98 L181.74 83.98 L181.74 83.4 L181.74 82.82 L207.97 97.97 L207.72 98.4 L207.47 98.83 Z" stroke="rgb(0, 0, 0)" stroke-width="0" fill-rule="evenodd" stroke-linejoin="miter" fill="rgb(0, 0, 0)" shape-rendering="geometricPrecision" /></g></g></g></svg>