<?xml version="1.0"?><svg xmlns="http://www.w3.org/2000/svg" xmlns:xlink="http://www.w3.org/1999/xlink" viewBox="185.26 183.39 49.72 50.68" preserveAspectRatio="xMidYMid" width="100%" height="100%"><clipPath id="644"><rect x="0.5" y="0.5" width="522.32" height="768.92" /></clipPath><g id="drawing"><rect x="185.26" y="183.39" width="100%" height="100%" fill="rgb(255, 255, 255)" /><g id="page" clip-path="url(#644)"><g><text xml:space="preserve" text-anchor="start" text-rendering="geometricPrecision"><tspan x="206.22" y="233.95" font-family="Arial" font-size="10" fill="rgb(0, 0, 0)">O</tspan></text></g><g id="Solid"><path d="M225.48 183.39 L225.48 183.39 L225.12 183.89 L224.76 184.39 L195.48 184.39 L195.12 183.89 L194.76 183.39 Z" stroke="rgb(0, 0, 0)" stroke-width="0" fill-rule="evenodd" stroke-linejoin="miter" fill="rgb(0, 0, 0)" shape-rendering="geometricPrecision" /></g><g id="Solid"><path d="M194.76 183.39 L194.76 183.39 L195.12 183.89 L195.48 184.39 L186.44 212.23 L185.85 212.42 L185.26 212.61 Z" stroke="rgb(0, 0, 0)" stroke-width="0" fill-rule="evenodd" stroke-linejoin="miter" fill="rgb(0, 0, 0)" shape-rendering="geometricPrecision" /></g><g id="Solid"><path d="M185.26 212.61 L185.26 212.61 L185.85 212.42 L186.44 212.23 L205.88 226.35 L205.58 226.75 L205.29 227.16 Z" stroke="rgb(0, 0, 0)" stroke-width="0" fill-rule="evenodd" stroke-linejoin="miter" fill="rgb(0, 0, 0)" shape-rendering="geometricPrecision" /></g><g id="Solid"><path d="M215.11 227.04 L215.11 227.04 L214.82 226.64 L214.52 226.23 L233.8 212.23 L234.39 212.42 L234.98 212.61 Z" stroke="rgb(0, 0, 0)" stroke-width="0" fill-rule="evenodd" stroke-linejoin="miter" fill="rgb(0, 0, 0)" shape-rendering="geometricPrecision" /></g><g id="Solid"><path d="M234.98 212.61 L234.98 212.61 L234.39 212.42 L233.8 212.23 L224.76 184.39 L225.12 183.89 L225.48 183.39 Z" stroke="rgb(0, 0, 0)" stroke-width="0" fill-rule="evenodd" stroke-linejoin="miter" fill="rgb(0, 0, 0)" shape-rendering="geometricPrecision" /></g></g></g></svg>