<?xml version="1.0"?><svg xmlns="http://www.w3.org/2000/svg" xmlns:xlink="http://www.w3.org/1999/xlink" viewBox="312.76 233 82.24 56" preserveAspectRatio="xMidYMid" width="100%" height="100%"><clipPath id="89"><rect x="0.5" y="0.5" width="522.32" height="768.92" /></clipPath><g id="drawing"><rect x="312.76" y="233" width="100%" height="100%" fill="rgb(255, 255, 255)" /><g id="page" clip-path="url(#89)"><g id="Solid"><path d="M347.82 270.41 L347.82 270.41 L348.07 270.85 L348.32 271.28 L332.88 280.19 L332.63 279.76 L332.38 279.33 Z" stroke="rgb(0, 0, 0)" stroke-width="0" fill-rule="evenodd" stroke-linejoin="miter" fill="rgb(0, 0, 0)" shape-rendering="geometricPrecision" /></g><g><text xml:space="preserve" text-anchor="end" text-rendering="geometricPrecision"><tspan x="331.38" y="286.46" font-family="Arial" font-size="10" fill="rgb(0, 0, 0)">H</tspan><tspan font-family="Arial" dy="2.26" font-size="7.5" fill="rgb(0, 0, 0)">3</tspan><tspan font-family="Arial" dy="-2.26" font-size="10" fill="rgb(0, 0, 0)">C</tspan></text></g><g id="Solid"><path d="M354.26 262.9 L354.26 262.9 L353.76 262.9 L353.26 262.9 L353.26 243.6 L353.76 243.6 L354.26 243.6 Z" stroke="rgb(0, 0, 0)" stroke-width="0" fill-rule="evenodd" stroke-linejoin="miter" fill="rgb(0, 0, 0)" shape-rendering="geometricPrecision" /></g><g><text xml:space="preserve" text-anchor="start" text-rendering="geometricPrecision"><tspan x="350.16" y="241.46" font-family="Arial" font-size="10" fill="rgb(0, 0, 0)">CH</tspan><tspan font-family="Arial" dy="2.26" font-size="7.5" fill="rgb(0, 0, 0)">3</tspan></text></g><g id="Solid"><path d="M359.08 271.21 L359.08 271.21 L359.33 270.78 L359.58 270.34 L375.42 279.49 L375.17 279.92 L374.92 280.35 Z" stroke="rgb(0, 0, 0)" stroke-width="0" fill-rule="evenodd" stroke-linejoin="miter" fill="rgb(0, 0, 0)" shape-rendering="geometricPrecision" /></g><g><text xml:space="preserve" text-anchor="start" text-rendering="geometricPrecision"><tspan x="376.14" y="286.46" font-family="Arial" font-size="10" fill="rgb(0, 0, 0)">CH</tspan><tspan font-family="Arial" dy="2.26" font-size="7.5" fill="rgb(0, 0, 0)">3</tspan></text></g><g><text xml:space="preserve" text-anchor="middle" text-rendering="geometricPrecision"><tspan x="353.76" y="271.46" font-family="Arial" font-size="10" fill="rgb(0, 0, 0)">Al</tspan></text></g></g></g></svg>