<?xml version="1.0" encoding="UTF-8"?>
<!DOCTYPE svg PUBLIC "-//W3C//DTD SVG 1.0//EN" "http://www.w3.org/TR/2001/REC-SVG-20010904/DTD/svg10.dtd">
<!-- Creator: CorelDRAW 2021 (64-Bit) -->
<svg xmlns="http://www.w3.org/2000/svg" xml:space="preserve" width="88.9mm" height="50.8mm" version="1.0" style="shape-rendering:geometricPrecision; text-rendering:geometricPrecision; image-rendering:optimizeQuality; fill-rule:evenodd; clip-rule:evenodd"
viewBox="0 0 8890 5080"
 xmlns:xlink="http://www.w3.org/1999/xlink"
 xmlns:xodm="http://www.corel.com/coreldraw/odm/2003">
 <defs>
  <style type="text/css">
   <![CDATA[
    .str1 {stroke:#FEFEFE;stroke-width:20;stroke-miterlimit:22.9256}
    .str2 {stroke:#FEFEFE;stroke-width:20;stroke-miterlimit:22.9256}
    .str4 {stroke:#322960;stroke-width:20;stroke-miterlimit:22.9256}
    .str0 {stroke:#322962;stroke-width:20;stroke-miterlimit:22.9256}
    .str3 {stroke:#C5C1DA;stroke-width:20;stroke-miterlimit:22.9256}
    .fil1 {fill:#FEFEFE}
    .fil2 {fill:#FEFEFE}
    .fil4 {fill:#322960}
    .fil0 {fill:#322962}
    .fil3 {fill:#C5C1DA}
   ]]>
  </style>
 </defs>
 <g id="Слой_x0020_1">
  <metadata id="CorelCorpID_0Corel-Layer"/>
  <path class="fil0 str0" d="M4326.73 59.13l-1164.02 619.64 -1164 619.63 0 1239.26 0 1239.26 1164 619.64 1164.02 619.64 1164.01 -619.64 1164.01 -619.64 0 -1239.26 0 -1239.26 -1164.01 -619.63 -1164.01 -619.64z"/>
  <path class="fil1 str1" d="M4326.73 1181.26c749.11,0 1356.4,607.29 1356.4,1356.4 0,749.12 -607.29,1356.41 -1356.4,1356.41 -749.12,0 -1356.41,-607.29 -1356.41,-1356.41 0,-749.11 607.29,-1356.4 1356.41,-1356.4z"/>
  <path class="fil2 str2" d="M5357.94 2491.73l1768.57 -1032.11 -512.96 -879 -1768.57 1032.13 512.96 878.98z"/>
  <path class="fil3 str3" d="M5363.79 2588.25c44.96,98.01 -41.35,417.49 -172.48,634.42 -131.11,216.91 -307.05,331.3 -511.97,390.33 -204.91,59.04 -438.84,62.75 -641.75,9.3 -202.92,-53.46 -374.83,-164.07 -497.4,-288.89 -122.58,-124.81 -195.82,-263.82 -233.55,-425.74 -37.72,-161.92 -39.91,-346.75 21.46,-440.35 61.38,-93.61 186.34,-96.01 318.78,-65.8 132.43,30.2 272.35,93 384.57,156.7 112.21,63.72 196.72,128.33 347.91,158.31 151.21,29.96 369.1,25.26 566.17,-38.78 197.07,-64.07 373.3,-187.51 418.26,-89.5z"/>
  <path class="fil4 str4" d="M3393.97 2285.53c47.07,-40.04 141.04,-103.97 312.74,-153.23 171.69,-49.27 421.12,-83.84 653.55,-72.59 232.42,11.25 447.86,68.34 615.26,134.31 167.4,65.96 286.78,140.78 339.74,183.98 52.98,43.19 39.55,54.75 -25.78,83.27 -65.33,28.5 -182.55,73.96 -292.87,105.48 -110.31,31.51 -213.69,49.05 -333.67,51.21 -119.97,2.15 -256.51,-11.09 -376.45,-43.92 -119.94,-32.85 -223.27,-85.26 -323.53,-135.31 -100.28,-50.08 -197.48,-97.77 -299.7,-110.86 -102.23,-13.1 -209.46,8.4 -262.99,11.1 -53.54,2.69 -53.38,-13.42 -6.3,-53.44z"/>
 </g>
</svg>
